<?xml version="1.0" encoding="UTF-8"?>
<svg xmlns="http://www.w3.org/2000/svg" xmlns:xlink="http://www.w3.org/1999/xlink" width="32px" height="32px" viewBox="0 0 32 32" version="1.1">
<g id="surface1">
<path style=" stroke:none;fill-rule:evenodd;fill:rgb(59.215689%,89.019608%,97.647059%);fill-opacity:1;" d="M 8.449219 16.023438 L 8.449219 23.601562 L 12.292969 23.601562 C 16.101562 23.601562 16.777344 23.578125 17.535156 23.421875 C 18.371094 23.253906 19.367188 22.847656 20.074219 22.390625 C 20.46875 22.136719 21.148438 21.605469 21.148438 21.550781 C 21.148438 21.53125 20.726562 21.152344 20.210938 20.710938 C 19.695312 20.269531 19.210938 19.851562 19.128906 19.785156 L 18.984375 19.660156 L 18.730469 19.847656 C 17.59375 20.699219 15.894531 20.957031 14.523438 20.488281 C 13 19.96875 11.847656 18.726562 11.453125 17.191406 C 10.878906 14.960938 12.011719 12.640625 14.125 11.714844 C 15.832031 10.96875 17.804688 11.300781 19.175781 12.5625 C 20.230469 13.535156 20.75 14.796875 20.683594 16.226562 C 20.648438 17.054688 20.480469 17.640625 20.0625 18.40625 C 20.054688 18.421875 20.492188 18.8125 21.035156 19.277344 C 21.578125 19.738281 22.074219 20.160156 22.132812 20.210938 C 22.238281 20.304688 22.238281 20.304688 22.4375 19.992188 C 22.867188 19.304688 23.214844 18.433594 23.414062 17.550781 C 23.503906 17.148438 23.519531 16.914062 23.519531 16.023438 C 23.519531 15.121094 23.503906 14.910156 23.410156 14.5 C 23.101562 13.183594 22.640625 12.210938 21.863281 11.25 C 20.863281 10.019531 19.449219 9.113281 17.875 8.699219 C 17.015625 8.472656 16.570312 8.453125 12.386719 8.453125 L 8.449219 8.449219 L 8.449219 16.023438 M 16.015625 12.75 C 15.894531 12.800781 15.800781 12.945312 15.800781 13.085938 C 15.800781 13.285156 15.921875 13.359375 16.355469 13.433594 C 17.488281 13.621094 18.371094 14.457031 18.566406 15.535156 C 18.617188 15.792969 18.660156 15.890625 18.761719 15.964844 C 18.925781 16.085938 19.117188 16.050781 19.234375 15.871094 C 19.308594 15.757812 19.308594 15.707031 19.253906 15.410156 C 19.039062 14.300781 18.265625 13.355469 17.25 12.960938 C 16.75 12.769531 16.203125 12.671875 16.015625 12.75 "/>
<path style=" stroke:none;fill-rule:evenodd;fill:rgb(1.568628%,1.568628%,1.568628%);fill-opacity:1;" d="M 0 16 L 0 32 L 32.023438 31.976562 L 32.039062 15.988281 L 32.050781 0 L 0 0 L 0 16 M 0.0234375 16.023438 C 0.0234375 24.824219 0.03125 28.417969 0.0390625 24.007812 C 0.0429688 19.597656 0.0429688 12.398438 0.0390625 8.007812 C 0.03125 3.617188 0.0234375 7.226562 0.0234375 16.023438 M 8.449219 16.023438 L 8.449219 23.601562 L 12.292969 23.601562 C 16.101562 23.601562 16.777344 23.578125 17.535156 23.421875 C 18.371094 23.253906 19.367188 22.847656 20.074219 22.390625 C 20.46875 22.136719 21.148438 21.605469 21.148438 21.550781 C 21.148438 21.53125 20.726562 21.152344 20.210938 20.710938 C 19.695312 20.269531 19.210938 19.851562 19.128906 19.785156 L 18.984375 19.660156 L 18.730469 19.847656 C 17.59375 20.699219 15.894531 20.957031 14.523438 20.488281 C 13 19.96875 11.847656 18.726562 11.453125 17.191406 C 10.878906 14.960938 12.011719 12.640625 14.125 11.714844 C 15.832031 10.96875 17.804688 11.300781 19.175781 12.5625 C 20.230469 13.535156 20.75 14.796875 20.683594 16.226562 C 20.648438 17.054688 20.480469 17.640625 20.0625 18.40625 C 20.054688 18.421875 20.492188 18.8125 21.035156 19.277344 C 21.578125 19.738281 22.074219 20.160156 22.132812 20.210938 C 22.238281 20.304688 22.238281 20.304688 22.4375 19.992188 C 22.867188 19.304688 23.214844 18.433594 23.414062 17.550781 C 23.503906 17.148438 23.519531 16.914062 23.519531 16.023438 C 23.519531 15.121094 23.503906 14.910156 23.410156 14.5 C 23.101562 13.183594 22.640625 12.210938 21.863281 11.25 C 20.863281 10.019531 19.449219 9.113281 17.875 8.699219 C 17.015625 8.472656 16.570312 8.453125 12.386719 8.453125 L 8.449219 8.449219 L 8.449219 16.023438 M 16.015625 12.75 C 15.894531 12.800781 15.800781 12.945312 15.800781 13.085938 C 15.800781 13.285156 15.921875 13.359375 16.355469 13.433594 C 17.488281 13.621094 18.371094 14.457031 18.566406 15.535156 C 18.617188 15.792969 18.660156 15.890625 18.761719 15.964844 C 18.925781 16.085938 19.117188 16.050781 19.234375 15.871094 C 19.308594 15.757812 19.308594 15.707031 19.253906 15.410156 C 19.039062 14.300781 18.265625 13.355469 17.25 12.960938 C 16.75 12.769531 16.203125 12.671875 16.015625 12.75 "/>
</g>
</svg>
